#!OML:ASF F:\VICON\USERDATA\INSTALL\rory3\rory3.ASF
:FULLY-SPECIFIED
:DEGREES
3076
root 13.9259 17.7915 -6.44235 724.48 44.0159 4.04569
lowerback 12.3094 2.72224 -0.443674
upperback 1.96866 3.56535 -0.296325
thorax -4.83239 1.776 -0.639902
lowerneck -10.0312 -1.17953 -11.7043
upperneck 43.9099 2.39474 2.30252
head 18.028 -0.186089 3.77635
rclavicle -4.47266e-014 4.77083e-015
rhumerus -33.1292 -8.96357 -83.2606
rradius 37.7846
rwrist 2.6104
rhand -17.7529 7.73398
rfingers 7.12502
rthumb 8.50885 -22.0746
lclavicle -4.47266e-014 4.77083e-015
lhumerus -42.8322 13.1915 71.9667
lradius 37.672
lwrist 1.12372
lhand -19.9752 30.1781
lfingers 7.12502
lthumb 6.36375 60.0625
rfemur -17.7025 12.8177 15.6129
rtibia 39.674
rfoot -18.3963 9.55454
rtoes 4.0205
lfemur -15.0345 -16.7289 -16.6985
ltibia 18.2778
lfoot 38.2075 -31.0638
ltoes 44.2438
3077
root 13.8769 17.7723 -6.41535 724.691 44.5599 4.25248
lowerback 12.3019 2.72059 -0.59064
upperback 2.0279 3.54679 -0.267066
thorax -4.77692 1.77019 -0.521875
lowerneck -10.1328 -1.07362 -11.802
upperneck 43.9399 2.6355 2.28996
head 18.0501 -0.102545 3.83286
rclavicle 1.30999e-013 -1.47101e-014
rhumerus -32.8943 -8.55491 -83.4928
rradius 38.1016
rwrist 2.51789
rhand -18.0625 7.81639
rfingers 7.12502
rthumb 8.20997 -22.0041
lclavicle 1.30999e-013 -1.47101e-014
lhumerus -42.9905 12.9624 72.344
lradius 37.6022
lwrist 1.26751
lhand -19.9466 30.0107
lfingers 7.12502
lthumb 6.39134 59.8942
rfemur -17.8393 12.7927 15.521
rtibia 39.7882
rfoot -18.4946 9.79422
rtoes 4.95407
lfemur -15.2379 -16.9132 -16.5962
ltibia 18.1472
lfoot 39.4603 -29.877
ltoes 45.5965
3078
root 13.8293 17.7574 -6.38586 724.922 45.2421 4.56341
lowerback 12.4238 2.68174 -0.658762
upperback 2.0446 3.48198 -0.352335
thorax -4.82525 1.73902 -0.567914
lowerneck -10.2232 -1.02813 -11.9634
upperneck 44.0336 2.73748 2.44336
head 18.116 -0.0673379 3.96034
rclavicle 1.76918e-014 -2.38542e-015
rhumerus -32.768 -8.45877 -83.7599
rradius 38.4516
rwrist 2.58596
rhand -17.8083 7.73407
rfingers 7.12502
rthumb 8.4553 -22.0767
lclavicle 1.76918e-014 -2.38542e-015
lhumerus -42.9773 13.2492 72.2746
lradius 37.044
lwrist 0.802287
lhand -19.7782 29.4485
lfingers 7.12502
lthumb 6.55394 59.3271
rfemur -17.7753 12.5082 15.4695
rtibia 39.8287
rfoot -18.7759 9.65477
rtoes 4.63455
lfemur -15.4256 -17.0728 -16.6122
ltibia 18.1446
lfoot 41.1386 -27.8523
ltoes 47.854
3079
root 13.78 17.7514 -6.35592 725.057 45.9884 4.72933
lowerback 12.5007 2.66127 -0.592431
upperback 2.09673 3.46066 -0.431186
thorax -4.80406 1.72775 -0.686036
lowerneck -10.3147 -1.02296 -11.8751
upperneck 44.1197 2.80473 2.36842
head 18.191 -0.0339854 3.9294
rclavicle 6.67916e-014 -1.27222e-014
rhumerus -32.5724 -8.49122 -84.0321
rradius 38.7225
rwrist 2.59295
rhand -17.6973 7.68869
rfingers 7.12502
rthumb 8.56243 -22.1177
lclavicle 6.67916e-014 -1.27222e-014
lhumerus -42.8711 13.2542 72.2852
lradius 36.5862
lwrist 0.284708
lhand -19.3598 28.8622
lfingers 7.12502
lthumb 6.95783 58.7279
rfemur -17.6239 12.1889 15.6392
rtibia 39.7656
rfoot -19.0481 9.07698
rtoes 3.76758
lfemur -15.607 -17.1254 -16.5015
ltibia 18.1398
lfoot 42.0964 -27.0791
ltoes 48.7418
3080
root 13.733 17.7496 -6.32902 725.16 46.732 4.70581
lowerback 12.4873 2.62226 -0.350746
upperback 2.08604 3.43937 -0.475609
thorax -4.79105 1.7135 -0.86378
lowerneck -10.2578 -0.992385 -11.6759
upperneck 44.1634 2.91329 2.15661
head 18.2014 0.0221346 3.81445
rclavicle -4.9398e-014 1.31198e-014
rhumerus -32.5325 -8.42303 -84.3209
rradius 39.1053
rwrist 2.39868
rhand -17.4318 7.49929
rfingers 7.12502
rthumb 8.81865 -22.2965
lclavicle -4.9398e-014 1.31198e-014
lhumerus -42.8827 13.1562 72.3487
lradius 36.223
lwrist -0.353061
lhand -19.2183 28.8252
lfingers 7.12502
lthumb 7.09441 58.6863
rfemur -17.5442 11.739 15.9783
rtibia 39.5866
rfoot -19.1603 8.36129
rtoes 3.56797
lfemur -15.8592 -17.2834 -16.2079
ltibia 18.0587
lfoot 41.9516 -28.2831
ltoes 47.5987
3081
root 13.6851 17.75 -6.29956 725.245 47.4641 4.74328
lowerback 12.5536 2.59232 -0.198173
upperback 2.06878 3.41896 -0.496482
thorax -4.83566 1.70076 -0.971637
lowerneck -10.1686 -0.979266 -11.5935
upperneck 44.2153 2.98248 2.04498
head 18.209 0.0566007 3.7613
rclavicle -4.32357e-014 1.03368e-014
rhumerus -32.4997 -8.18948 -84.6077
rradius 39.4204
rwrist 1.90569
rhand -17.1869 7.18148
rfingers 7.12502
rthumb 9.05496 -22.6042
lclavicle -4.32357e-014 1.03368e-014
lhumerus -42.8984 13.4446 72.3365
lradius 35.7555
lwrist -1.44262
lhand -19.2115 28.7783
lfingers 7.12502
lthumb 7.10099 58.6392
rfemur -17.367 11.0475 16.3293
rtibia 39.3037
rfoot -19.1839 7.69499
rtoes 4.42832
lfemur -16.0765 -17.6624 -15.964
ltibia 17.9933
lfoot 42.1933 -28.4932
ltoes 47.4351
